REM DIRINDEX 1\2,1\3,1\4,1\5
REM DIRNAME folder01,folder02,folder03,folder04,folder05
TITLE ""
FILE "CD2Track41.mp3" MP3
  TRACK 01 AUDIO
    TITLE "0:"
    INDEX 01 00:00:00
  TRACK 02 AUDIO
    TITLE "5:cjc100_2065"
    INDEX 01 00:00:27
  TRACK 03 AUDIO
    TITLE "0:"
    INDEX 01 00:02:16
  TRACK 04 AUDIO
    TITLE "4:cjc100_2066"
    INDEX 01 00:03:25
  TRACK 05 AUDIO
    TITLE "0:"
    INDEX 01 00:04:60
  TRACK 06 AUDIO
    TITLE "4:cjc100_2067"
    INDEX 01 00:05:07
  TRACK 07 AUDIO
    TITLE "0:"
    INDEX 01 00:06:43
  TRACK 08 AUDIO
    TITLE "4:cjc100_2068"
    INDEX 01 00:06:45
  TRACK 09 AUDIO
    TITLE "0:"
    INDEX 01 00:07:72
  TRACK 10 AUDIO
    TITLE "4:cjc100_2069"
    INDEX 01 00:08:21
  TRACK 11 AUDIO
    TITLE "0:"
    INDEX 01 00:09:53
  TRACK 12 AUDIO
    TITLE "4:cjc100_2070"
    INDEX 01 00:09:63
  TRACK 13 AUDIO
    TITLE "0:"
    INDEX 01 00:11:17
  TRACK 14 AUDIO
    TITLE "4:cjc100_2071"
    INDEX 01 00:11:31
  TRACK 15 AUDIO
    TITLE "0:"
    INDEX 01 00:12:46
  TRACK 16 AUDIO
    TITLE "4:cjc100_2072"
    INDEX 01 00:13:02
  TRACK 17 AUDIO
    TITLE "0:"
    INDEX 01 00:14:70
  TRACK 18 AUDIO
    TITLE "4:cjc100_2073"
    INDEX 01 00:15:09
  TRACK 19 AUDIO
    TITLE "0:"
    INDEX 01 00:16:36
  TRACK 20 AUDIO
    TITLE "4:cjc100_2074"
    INDEX 01 00:16:48
  TRACK 21 AUDIO
    TITLE "0:"
    INDEX 01 00:17:65
  TRACK 22 AUDIO
    TITLE "4:cjc100_2075"
    INDEX 01 00:17:72
  TRACK 23 AUDIO
    TITLE "0:"
    INDEX 01 00:19:42
  TRACK 24 AUDIO
    TITLE "4:cjc100_2076"
    INDEX 01 00:20:18
  TRACK 25 AUDIO
    TITLE "0:"
    INDEX 01 00:21:53
  TRACK 26 AUDIO
    TITLE "4:cjc100_2077"
    INDEX 01 00:22:05
  TRACK 27 AUDIO
    TITLE "0:"
    INDEX 01 00:23:42
  TRACK 28 AUDIO
    TITLE "4:cjc100_2078"
    INDEX 01 00:23:55
  TRACK 29 AUDIO
    TITLE "0:"
    INDEX 01 00:25:03
  TRACK 30 AUDIO
    TITLE "4:cjc100_2079"
    INDEX 01 00:25:29
  TRACK 31 AUDIO
    TITLE "0:"
    INDEX 01 00:26:52
  TRACK 32 AUDIO
    TITLE "4:cjc100_2080"
    INDEX 01 00:26:71
  TRACK 33 AUDIO
    TITLE "0:"
    INDEX 01 00:28:25
  TRACK 34 AUDIO
    TITLE "4:cjc100_2081"
    INDEX 01 00:28:51
  TRACK 35 AUDIO
    TITLE "0:"
    INDEX 01 00:30:34
  TRACK 36 AUDIO
    TITLE "4:cjc100_2082"
    INDEX 01 00:30:54
  TRACK 37 AUDIO
    TITLE "0:"
    INDEX 01 00:32:17
  TRACK 38 AUDIO
    TITLE "4:cjc100_2083"
    INDEX 01 00:32:35
  TRACK 39 AUDIO
    TITLE "0:"
    INDEX 01 00:33:60
  TRACK 40 AUDIO
    TITLE "4:cjc100_2084"
    INDEX 01 00:34:02
  TRACK 41 AUDIO
    TITLE "0:"
    INDEX 01 00:35:23
  TRACK 42 AUDIO
    TITLE "4:cjc100_2085"
    INDEX 01 00:35:35
  TRACK 43 AUDIO
    TITLE "0:"
    INDEX 01 00:37:12
  TRACK 44 AUDIO
    TITLE "4:cjc100_2086"
    INDEX 01 00:37:28
  TRACK 45 AUDIO
    TITLE "0:"
    INDEX 01 00:38:71
  TRACK 46 AUDIO
    TITLE "4:cjc100_2087"
    INDEX 01 00:39:33
  TRACK 47 AUDIO
    TITLE "0:"
    INDEX 01 00:40:64
  TRACK 48 AUDIO
    TITLE "4:cjc100_2088"
    INDEX 01 00:41:12
  TRACK 49 AUDIO
    TITLE "0:"
    INDEX 01 00:42:29
  TRACK 50 AUDIO
    TITLE "4:cjc100_2089"
    INDEX 01 00:42:68
  TRACK 51 AUDIO
    TITLE "0:"
    INDEX 01 00:44:07
  TRACK 52 AUDIO
    TITLE "4:cjc100_2090"
    INDEX 01 00:44:38
  TRACK 53 AUDIO
    TITLE "0:"
    INDEX 01 00:45:71
  TRACK 54 AUDIO
    TITLE "4:cjc100_2091"
    INDEX 01 00:46:17
  TRACK 55 AUDIO
    TITLE "0:"
    INDEX 01 00:47:42
  TRACK 56 AUDIO
    TITLE "4:cjc100_2092"
    INDEX 01 00:47:60
  TRACK 57 AUDIO
    TITLE "0:"
    INDEX 01 00:49:29
  TRACK 58 AUDIO
    TITLE "4:cjc100_2093"
    INDEX 01 00:49:39
  TRACK 59 AUDIO
    TITLE "0:"
    INDEX 01 00:50:70
  TRACK 60 AUDIO
    TITLE "4:cjc100_2094"
    INDEX 01 00:51:01
  TRACK 61 AUDIO
    TITLE "0:"
    INDEX 01 00:52:32
  TRACK 62 AUDIO
    TITLE "4:cjc100_2095"
    INDEX 01 00:52:43
  TRACK 63 AUDIO
    TITLE "0:"
    INDEX 01 00:54:21
  TRACK 64 AUDIO
    TITLE "4:cjc100_2096"
    INDEX 01 00:54:23
  TRACK 65 AUDIO
    TITLE "0:"
    INDEX 01 00:56:02
  TRACK 66 AUDIO
    TITLE "4:cjc100_2097"
    INDEX 01 00:56:25
  TRACK 67 AUDIO
    TITLE "0:"
    INDEX 01 00:57:54
  TRACK 68 AUDIO
    TITLE "4:cjc100_2098"
    INDEX 01 00:57:68
  TRACK 69 AUDIO
    TITLE "0:"
    INDEX 01 00:59:20
  TRACK 70 AUDIO
    TITLE "4:cjc100_2099"
    INDEX 01 00:59:41
  TRACK 71 AUDIO
    TITLE "0:"
    INDEX 01 01:01:15
  TRACK 72 AUDIO
    TITLE "4:cjc100_2100"
    INDEX 01 01:01:29
  TRACK 73 AUDIO
    TITLE "0:"
    INDEX 01 01:02:57
  TRACK 74 AUDIO
    TITLE "4:cjc100_2101"
    INDEX 01 01:02:61
  TRACK 75 AUDIO
    TITLE "0:"
    INDEX 01 01:04:27
  TRACK 76 AUDIO
    TITLE "4:cjc100_2102"
    INDEX 01 01:04:31
  TRACK 77 AUDIO
    TITLE "0:"
    INDEX 01 01:05:64
  TRACK 78 AUDIO
    TITLE "4:cjc100_2103"
    INDEX 01 01:05:71
  TRACK 79 AUDIO
    TITLE "0:"
    INDEX 01 01:07:23
  TRACK 80 AUDIO
    TITLE "4:cjc100_2104"
    INDEX 01 01:07:51
  TRACK 81 AUDIO
    TITLE "0:"
    INDEX 01 01:08:72
  TRACK 82 AUDIO
    TITLE "4:cjc100_2105"
    INDEX 01 01:09:16
  TRACK 83 AUDIO
    TITLE "0:"
    INDEX 01 01:10:37
  TRACK 84 AUDIO
    TITLE "4:cjc100_2106"
    INDEX 01 01:11:03
  TRACK 85 AUDIO
    TITLE "0:"
    INDEX 01 01:12:32
  TRACK 86 AUDIO
    TITLE "4:cjc100_2107"
    INDEX 01 01:12:36
  TRACK 87 AUDIO
    TITLE "0:"
    INDEX 01 01:14:14
  TRACK 88 AUDIO
    TITLE "4:cjc100_2108"
    INDEX 01 01:14:37
  TRACK 89 AUDIO
    TITLE "0:"
    INDEX 01 01:16:03
  TRACK 90 AUDIO
    TITLE "4:cjc100_2109"
    INDEX 01 01:16:24
  TRACK 91 AUDIO
    TITLE "0:"
    INDEX 01 01:17:65
  TRACK 92 AUDIO
    TITLE "4:cjc100_2110"
    INDEX 01 01:18:02
  TRACK 93 AUDIO
    TITLE "0:"
    INDEX 01 01:19:40
  TRACK 94 AUDIO
    TITLE "4:cjc100_2111"
    INDEX 01 01:19:54
  TRACK 95 AUDIO
    TITLE "0:"
    INDEX 01 01:21:06
  TRACK 96 AUDIO
    TITLE "4:cjc100_2112"
    INDEX 01 01:21:08
  TRACK 97 AUDIO
    TITLE "0:"
    INDEX 01 01:22:50
  TRACK 98 AUDIO
    TITLE "4:cjc100_2113"
    INDEX 01 01:22:70
  TRACK 99 AUDIO
    TITLE "0:"
    INDEX 01 01:24:08
  TRACK 100 AUDIO
    TITLE "4:cjc100_2114"
    INDEX 01 01:24:30
  TRACK 101 AUDIO
    TITLE "0:"
    INDEX 01 01:25:66
  TRACK 102 AUDIO
    TITLE "4:cjc100_2115"
    INDEX 01 01:26:19
  TRACK 103 AUDIO
    TITLE "0:"
    INDEX 01 01:27:38
  TRACK 104 AUDIO
    TITLE "4:cjc100_2116"
    INDEX 01 01:27:59
  TRACK 105 AUDIO
    TITLE "0:"
    INDEX 01 01:29:21
  TRACK 106 AUDIO
    TITLE "4:cjc100_2117"
    INDEX 01 01:29:43
  TRACK 107 AUDIO
    TITLE "0:"
    INDEX 01 01:31:04
  TRACK 108 AUDIO
    TITLE "4:cjc100_2118"
    INDEX 01 01:31:38
  TRACK 109 AUDIO
    TITLE "0:"
    INDEX 01 01:33:01
  TRACK 110 AUDIO
    TITLE "4:cjc100_2119"
    INDEX 01 01:33:15
  TRACK 111 AUDIO
    TITLE "0:"
    INDEX 01 01:34:50
  TRACK 112 AUDIO
    TITLE "4:cjc100_2120"
    INDEX 01 01:34:57
  TRACK 113 AUDIO
    TITLE "0:"
    INDEX 01 01:36:15
  TRACK 114 AUDIO
    TITLE "4:cjc100_2121"
    INDEX 01 01:36:23
  TRACK 115 AUDIO
    TITLE "0:"
    INDEX 01 01:38:02
  TRACK 116 AUDIO
    TITLE "4:cjc100_2122"
    INDEX 01 01:38:18
  TRACK 117 AUDIO
    TITLE "0:"
    INDEX 01 01:39:57
  TRACK 118 AUDIO
    TITLE "4:cjc100_2123"
    INDEX 01 01:39:59
  TRACK 119 AUDIO
    TITLE "0:"
    INDEX 01 01:41:34
  TRACK 120 AUDIO
    TITLE "4:cjc100_2124"
    INDEX 01 01:41:40
  TRACK 121 AUDIO
    TITLE "0:"
    INDEX 01 01:43:05
  TRACK 122 AUDIO
    TITLE "4:cjc100_2125"
    INDEX 01 01:43:19
  TRACK 123 AUDIO
    TITLE "0:"
    INDEX 01 01:44:64
  TRACK 124 AUDIO
    TITLE "4:cjc100_2126"
    INDEX 01 01:45:02
  TRACK 125 AUDIO
    TITLE "0:"
    INDEX 01 01:46:55
  TRACK 126 AUDIO
    TITLE "4:cjc100_2127"
    INDEX 01 01:47:03
  TRACK 127 AUDIO
    TITLE "0:"
    INDEX 01 01:48:48
  TRACK 128 AUDIO
    TITLE "4:cjc100_2128"
    INDEX 01 01:48:50
  TRACK 129 AUDIO
    TITLE "0:"
    INDEX 01 01:49:71
  TRACK 130 AUDIO
    TITLE "4:cjc100_2129"
    INDEX 01 01:50:54
  TRACK 131 AUDIO
    TITLE "0:"
    INDEX 01 01:52:26
  TRACK 132 AUDIO
    TITLE "4:cjc100_2130"
    INDEX 01 01:52:28
  TRACK 133 AUDIO
    TITLE "0:"
    INDEX 01 01:53:74
  TRACK 134 AUDIO
    TITLE "4:cjc100_2131"
    INDEX 01 01:54:21
  TRACK 135 AUDIO
    TITLE "0:"
    INDEX 01 01:55:58
  TRACK 136 AUDIO
    TITLE "4:cjc100_2132"
    INDEX 01 01:55:63
  TRACK 137 AUDIO
    TITLE "0:"
    INDEX 01 01:57:41
  TRACK 138 AUDIO
    TITLE "4:cjc100_2133"
    INDEX 01 01:57:51
  TRACK 139 AUDIO
    TITLE "0:"
    INDEX 01 01:58:70
  TRACK 140 AUDIO
    TITLE "4:cjc100_2134"
    INDEX 01 01:59:01
  TRACK 141 AUDIO
    TITLE "0:"
    INDEX 01 02:00:51
  TRACK 142 AUDIO
    TITLE "4:cjc100_2135"
    INDEX 01 02:00:69
  TRACK 143 AUDIO
    TITLE "0:"
    INDEX 01 02:02:17
  TRACK 144 AUDIO
    TITLE "4:cjc100_2136"
    INDEX 01 02:02:34
  TRACK 145 AUDIO
    TITLE "0:"
    INDEX 01 02:03:71
  TRACK 146 AUDIO
    TITLE "4:cjc100_2137"
    INDEX 01 02:04:04
  TRACK 147 AUDIO
    TITLE "0:"
    INDEX 01 02:05:52
  TRACK 148 AUDIO
    TITLE "4:cjc100_2138"
    INDEX 01 02:06:14
  TRACK 149 AUDIO
    TITLE "0:"
    INDEX 01 02:07:63
  TRACK 150 AUDIO
    TITLE "4:cjc100_2139"
    INDEX 01 02:08:13
  TRACK 151 AUDIO
    TITLE "0:"
    INDEX 01 02:09:30
  TRACK 152 AUDIO
    TITLE "4:cjc100_2140"
    INDEX 01 02:09:42
  TRACK 153 AUDIO
    TITLE "0:"
    INDEX 01 02:11:08
  TRACK 154 AUDIO
    TITLE "4:cjc100_2141"
    INDEX 01 02:11:10
  TRACK 155 AUDIO
    TITLE "0:"
    INDEX 01 02:12:56
  TRACK 156 AUDIO
    TITLE "4:cjc100_2142"
    INDEX 01 02:12:58
  TRACK 157 AUDIO
    TITLE "0:"
    INDEX 01 02:14:12
  TRACK 158 AUDIO
    TITLE "4:cjc100_2143"
    INDEX 01 02:14:24
  TRACK 159 AUDIO
    TITLE "0:"
    INDEX 01 02:15:54
  TRACK 160 AUDIO
    TITLE "4:cjc100_2144"
    INDEX 01 02:15:62
  TRACK 161 AUDIO
    TITLE "0:"
    INDEX 01 02:17:30
  TRACK 162 AUDIO
    TITLE "4:cjc100_2145"
    INDEX 01 02:17:53
  TRACK 163 AUDIO
    TITLE "0:"
    INDEX 01 02:19:17
  TRACK 164 AUDIO
    TITLE "4:cjc100_2146"
    INDEX 01 02:19:25
  TRACK 165 AUDIO
    TITLE "0:"
    INDEX 01 02:20:61
  TRACK 166 AUDIO
    TITLE "4:cjc100_2147"
    INDEX 01 02:21:04
  TRACK 167 AUDIO
    TITLE "0:"
    INDEX 01 02:22:25
  TRACK 168 AUDIO
    TITLE "4:cjc100_2148"
    INDEX 01 02:22:41
  TRACK 169 AUDIO
    TITLE "0:"
    INDEX 01 02:24:02
  TRACK 170 AUDIO
    TITLE "4:cjc100_2149"
    INDEX 01 02:24:32
  TRACK 171 AUDIO
    TITLE "0:"
    INDEX 01 02:25:55
  TRACK 172 AUDIO
    TITLE "4:cjc100_2150"
    INDEX 01 02:25:63
  TRACK 173 AUDIO
    TITLE "0:"
    INDEX 01 02:27:38
  TRACK 174 AUDIO
    TITLE "4:cjc100_2151"
    INDEX 01 02:27:58
  TRACK 175 AUDIO
    TITLE "0:"
    INDEX 01 02:29:11
  TRACK 176 AUDIO
    TITLE "4:cjc100_2152"
    INDEX 01 02:29:17
  TRACK 177 AUDIO
    TITLE "0:"
    INDEX 01 02:30:44
  TRACK 178 AUDIO
    TITLE "4:cjc100_2153"
    INDEX 01 02:30:68
  TRACK 179 AUDIO
    TITLE "0:"
    INDEX 01 02:32:08
  TRACK 180 AUDIO
    TITLE "4:cjc100_2154"
    INDEX 01 02:32:31
  TRACK 181 AUDIO
    TITLE "0:"
    INDEX 01 02:33:66
  TRACK 182 AUDIO
    TITLE "4:cjc100_2155"
    INDEX 01 02:34:05
  TRACK 183 AUDIO
    TITLE "0:"
    INDEX 01 02:35:36
  TRACK 184 AUDIO
    TITLE "4:cjc100_2156"
    INDEX 01 02:35:63
  TRACK 185 AUDIO
    TITLE "0:"
    INDEX 01 02:37:46
  TRACK 186 AUDIO
    TITLE "4:cjc100_2157"
    INDEX 01 02:38:10
  TRACK 187 AUDIO
    TITLE "0:"
    INDEX 01 02:40:15
  TRACK 188 AUDIO
    TITLE "4:cjc100_2158"
    INDEX 01 02:40:43
  TRACK 189 AUDIO
    TITLE "0:"
    INDEX 01 02:42:12
  TRACK 190 AUDIO
    TITLE "4:cjc100_2159"
    INDEX 01 02:42:45
  TRACK 191 AUDIO
    TITLE "0:"
    INDEX 01 02:44:17
  TRACK 192 AUDIO
    TITLE "4:cjc100_2160"
    INDEX 01 02:44:52
  TRACK 193 AUDIO
    TITLE "0:"
    INDEX 01 02:46:24
